<?xml version="1.0" encoding="utf-8"?>

<!-- Uploaded to: SVG Repo, www.svgrepo.com, Generator: SVG Repo Mixer Tools -->
<svg version="1.1" id="Icons" xmlns="http://www.w3.org/2000/svg" xmlns:xlink="http://www.w3.org/1999/xlink" 
	 viewBox="0 0 32 32" xml:space="preserve">
<style type="text/css">
	.st0{fill:none;stroke:#000000;stroke-width:2;stroke-linecap:round;stroke-linejoin:round;stroke-miterlimit:10;}
</style>
<path class="st0" d="M26.3,15.3c-1.5,3.9-5.3,6.7-9.8,6.7c-4.4,0-8.2-2.8-9.8-6.7"/>
<path class="st0" d="M19.8,11.6c0.6,0.8,1.6,1.4,2.7,1.4c1.4,0,2.6-0.8,3.2-2c0.2-0.5,0.3-1,0.3-1.5C26,7.6,24.4,6,22.5,6
	c-0.6,0-1.2,0.2-1.7,0.5C20.1,3.9,17.8,2,15,2c-2.8,0-5.1,1.9-5.8,4.4C7.9,7.1,7,8.4,7,10c0,0.3,0,0.7,0.1,1"/>
<polyline class="st0" points="24.9,12 27,12 24,30 9,30 6,12 20.1,12 "/>
</svg>